<svg width="39" height="1236" viewBox="0 0 39 1236" fill="none" xmlns="http://www.w3.org/2000/svg">
<path d="M1.472 519C1.472 517.72 1.57867 516.589 1.792 515.608C2.02667 514.605 2.35733 513.709 2.784 512.92C3.232 512.131 3.76533 511.437 4.384 510.84C5.00267 510.243 5.70667 509.709 6.496 509.24C7.328 508.749 8.18133 508.301 9.056 507.896C9.93067 507.491 10.7413 507.064 11.488 506.616C12.2347 506.168 12.832 505.635 13.28 505.016C13.7493 504.376 13.984 503.587 13.984 502.648C13.984 501.901 13.824 501.229 13.504 500.632C13.184 500.013 12.704 499.523 12.064 499.16C11.424 498.797 10.6027 498.616 9.6 498.616C8.59733 498.616 7.69067 498.787 6.88 499.128C6.09067 499.469 5.408 499.875 4.832 500.344C4.256 500.813 3.79733 501.261 3.456 501.688L1.632 499.864C1.80267 499.651 2.10133 499.331 2.528 498.904C2.976 498.477 3.54133 498.04 4.224 497.592C4.928 497.144 5.74933 496.771 6.688 496.472C7.62667 496.152 8.69333 495.992 9.888 495.992C11.488 495.992 12.8213 496.291 13.888 496.888C14.9547 497.485 15.7547 498.285 16.288 499.288C16.8427 500.291 17.12 501.4 17.12 502.616C17.12 503.704 16.9173 504.643 16.512 505.432C16.1067 506.2 15.584 506.851 14.944 507.384C14.304 507.917 13.6 508.387 12.832 508.792C12.0853 509.197 11.36 509.581 10.656 509.944C9.312 510.584 8.24533 511.171 7.456 511.704C6.66667 512.237 6.05867 512.76 5.632 513.272C5.22667 513.763 4.94933 514.264 4.8 514.776C4.672 515.288 4.59733 515.843 4.576 516.44H17.152V519H1.472ZM19.227 519C19.227 517.72 19.3337 516.589 19.547 515.608C19.7817 514.605 20.1123 513.709 20.539 512.92C20.987 512.131 21.5203 511.437 22.139 510.84C22.7577 510.243 23.4617 509.709 24.251 509.24C25.083 508.749 25.9363 508.301 26.811 507.896C27.6857 507.491 28.4963 507.064 29.243 506.616C29.9897 506.168 30.587 505.635 31.035 505.016C31.5043 504.376 31.739 503.587 31.739 502.648C31.739 501.901 31.579 501.229 31.259 500.632C30.939 500.013 30.459 499.523 29.819 499.16C29.179 498.797 28.3577 498.616 27.355 498.616C26.3523 498.616 25.4457 498.787 24.635 499.128C23.8457 499.469 23.163 499.875 22.587 500.344C22.011 500.813 21.5523 501.261 21.211 501.688L19.387 499.864C19.5577 499.651 19.8563 499.331 20.283 498.904C20.731 498.477 21.2963 498.04 21.979 497.592C22.683 497.144 23.5043 496.771 24.443 496.472C25.3817 496.152 26.4483 495.992 27.643 495.992C29.243 495.992 30.5763 496.291 31.643 496.888C32.7097 497.485 33.5097 498.285 34.043 499.288C34.5977 500.291 34.875 501.4 34.875 502.616C34.875 503.704 34.6723 504.643 34.267 505.432C33.8617 506.2 33.339 506.851 32.699 507.384C32.059 507.917 31.355 508.387 30.587 508.792C29.8403 509.197 29.115 509.581 28.411 509.944C27.067 510.584 26.0003 511.171 25.211 511.704C24.4217 512.237 23.8137 512.76 23.387 513.272C22.9817 513.763 22.7043 514.264 22.555 514.776C22.427 515.288 22.3523 515.843 22.331 516.44H34.907V519H19.227Z" fill="#52554E"/>
<path d="M11.04 577.32C9.48267 577.277 8.10667 576.904 6.912 576.2C5.71733 575.496 4.71467 574.579 3.904 573.448C3.11467 572.296 2.51733 571.059 2.112 569.736C1.70667 568.392 1.504 567.08 1.504 565.8C1.504 564.435 1.71733 563.069 2.144 561.704C2.592 560.339 3.232 559.101 4.064 557.992C4.896 556.861 5.89867 555.965 7.072 555.304C8.24533 554.621 9.568 554.28 11.04 554.28C12.6187 554.28 13.9947 554.643 15.168 555.368C16.3627 556.093 17.3547 557.032 18.144 558.184C18.9547 559.336 19.5627 560.584 19.968 561.928C20.3733 563.272 20.576 564.563 20.576 565.8C20.576 567.187 20.352 568.563 19.904 569.928C19.4773 571.272 18.848 572.499 18.016 573.608C17.184 574.717 16.1813 575.613 15.008 576.296C13.8347 576.957 12.512 577.299 11.04 577.32ZM4.416 565.8C4.45867 566.845 4.61867 567.891 4.896 568.936C5.17333 569.981 5.58933 570.941 6.144 571.816C6.69867 572.691 7.38133 573.395 8.192 573.928C9.00267 574.461 9.952 574.728 11.04 574.728C12.1707 574.728 13.152 574.451 13.984 573.896C14.816 573.32 15.4987 572.584 16.032 571.688C16.5867 570.771 16.992 569.8 17.248 568.776C17.5253 567.731 17.664 566.739 17.664 565.8C17.664 564.755 17.5147 563.709 17.216 562.664C16.9387 561.619 16.512 560.659 15.936 559.784C15.36 558.909 14.6667 558.205 13.856 557.672C13.0453 557.139 12.1067 556.872 11.04 556.872C9.90933 556.872 8.928 557.16 8.096 557.736C7.264 558.291 6.57067 559.027 6.016 559.944C5.48267 560.84 5.07733 561.811 4.8 562.856C4.544 563.88 4.416 564.861 4.416 565.8ZM29.5177 577.32C27.8964 577.32 26.4351 576.936 25.1337 576.168C23.8537 575.4 22.8724 574.365 22.1897 573.064L23.9497 571.528C24.5471 572.509 25.3364 573.299 26.3177 573.896C27.3204 574.493 28.3977 574.792 29.5497 574.792C30.5311 574.792 31.4057 574.579 32.1737 574.152C32.9417 573.725 33.5497 573.139 33.9977 572.392C34.4457 571.645 34.6698 570.781 34.6698 569.8C34.6698 568.84 34.4457 567.997 33.9977 567.272C33.5711 566.547 32.9844 565.981 32.2378 565.576C31.5124 565.149 30.6911 564.936 29.7737 564.936C28.8777 564.936 28.0244 565.139 27.2137 565.544C26.4031 565.949 25.7524 566.525 25.2617 567.272H22.7017L25.2617 554.28H36.3018V556.872H27.3417L25.9657 564.104C26.4351 563.592 27.0217 563.197 27.7257 562.92C28.4511 562.643 29.2511 562.504 30.1257 562.504C31.5337 562.504 32.7924 562.813 33.9017 563.432C35.0324 564.051 35.9177 564.904 36.5577 565.992C37.2191 567.059 37.5497 568.307 37.5497 569.736C37.5497 571.229 37.1871 572.552 36.4618 573.704C35.7578 574.835 34.7978 575.72 33.5817 576.36C32.3871 577 31.0324 577.32 29.5177 577.32Z" fill="#52554E"/>
<path d="M1.472 635C1.472 633.72 1.57867 632.589 1.792 631.608C2.02667 630.605 2.35733 629.709 2.784 628.92C3.232 628.131 3.76533 627.437 4.384 626.84C5.00267 626.243 5.70667 625.709 6.496 625.24C7.328 624.749 8.18133 624.301 9.056 623.896C9.93067 623.491 10.7413 623.064 11.488 622.616C12.2347 622.168 12.832 621.635 13.28 621.016C13.7493 620.376 13.984 619.587 13.984 618.648C13.984 617.901 13.824 617.229 13.504 616.632C13.184 616.013 12.704 615.523 12.064 615.16C11.424 614.797 10.6027 614.616 9.6 614.616C8.59733 614.616 7.69067 614.787 6.88 615.128C6.09067 615.469 5.408 615.875 4.832 616.344C4.256 616.813 3.79733 617.261 3.456 617.688L1.632 615.864C1.80267 615.651 2.10133 615.331 2.528 614.904C2.976 614.477 3.54133 614.04 4.224 613.592C4.928 613.144 5.74933 612.771 6.688 612.472C7.62667 612.152 8.69333 611.992 9.888 611.992C11.488 611.992 12.8213 612.291 13.888 612.888C14.9547 613.485 15.7547 614.285 16.288 615.288C16.8427 616.291 17.12 617.4 17.12 618.616C17.12 619.704 16.9173 620.643 16.512 621.432C16.1067 622.2 15.584 622.851 14.944 623.384C14.304 623.917 13.6 624.387 12.832 624.792C12.0853 625.197 11.36 625.581 10.656 625.944C9.312 626.584 8.24533 627.171 7.456 627.704C6.66667 628.237 6.05867 628.76 5.632 629.272C5.22667 629.763 4.94933 630.264 4.8 630.776C4.672 631.288 4.59733 631.843 4.576 632.44H17.152V635H1.472ZM19.227 635C19.227 633.72 19.3337 632.589 19.547 631.608C19.7817 630.605 20.1123 629.709 20.539 628.92C20.987 628.131 21.5203 627.437 22.139 626.84C22.7577 626.243 23.4617 625.709 24.251 625.24C25.083 624.749 25.9363 624.301 26.811 623.896C27.6857 623.491 28.4963 623.064 29.243 622.616C29.9897 622.168 30.587 621.635 31.035 621.016C31.5043 620.376 31.739 619.587 31.739 618.648C31.739 617.901 31.579 617.229 31.259 616.632C30.939 616.013 30.459 615.523 29.819 615.16C29.179 614.797 28.3577 614.616 27.355 614.616C26.3523 614.616 25.4457 614.787 24.635 615.128C23.8457 615.469 23.163 615.875 22.587 616.344C22.011 616.813 21.5523 617.261 21.211 617.688L19.387 615.864C19.5577 615.651 19.8563 615.331 20.283 614.904C20.731 614.477 21.2963 614.04 21.979 613.592C22.683 613.144 23.5043 612.771 24.443 612.472C25.3817 612.152 26.4483 611.992 27.643 611.992C29.243 611.992 30.5763 612.291 31.643 612.888C32.7097 613.485 33.5097 614.285 34.043 615.288C34.5977 616.291 34.875 617.4 34.875 618.616C34.875 619.704 34.6723 620.643 34.267 621.432C33.8617 622.2 33.339 622.851 32.699 623.384C32.059 623.917 31.355 624.387 30.587 624.792C29.8403 625.197 29.115 625.581 28.411 625.944C27.067 626.584 26.0003 627.171 25.211 627.704C24.4217 628.237 23.8137 628.76 23.387 629.272C22.9817 629.763 22.7043 630.264 22.555 630.776C22.427 631.288 22.3523 631.843 22.331 632.44H34.907V635H19.227Z" fill="#52554E"/>
<line x1="18.5" y1="653" x2="18.5" y2="1236" stroke="#52554E"/>
<line x1="18.5" y1="-2.18557e-08" x2="18.5" y2="479" stroke="#52554E"/>
</svg>
