<svg width="42" height="30" viewBox="0 0 42 30" fill="none" xmlns="http://www.w3.org/2000/svg">
<path d="M20.6 24.536C20.5147 24.6213 20.312 24.6427 19.992 24.6C19.672 24.5787 19.416 24.4293 19.224 24.152C19.0747 23.8533 18.9893 23.512 18.968 23.128C18.9467 22.744 18.9467 22.2107 18.968 21.528C19.096 20.7813 19.3093 19.8 19.608 18.584C19.9067 17.368 20.2373 16.0133 20.6 14.52C20.984 13.0053 21.368 11.4587 21.752 9.88C21.944 9.13333 22.0933 8.504 22.2 7.992C22.328 7.48 22.4133 7.096 22.456 6.84C22.52 6.56267 22.552 6.424 22.552 6.424C22.5307 6.46667 22.4987 6.50933 22.456 6.552C22.4347 6.59467 22.4133 6.63733 22.392 6.68C22.3707 6.72267 22.3493 6.76533 22.328 6.808C22.328 6.808 22.2853 6.88267 22.2 7.032C22.136 7.18133 21.9867 7.43733 21.752 7.8C21.5813 8.056 21.4213 8.35467 21.272 8.696C21.1227 9.03733 20.8667 9.48533 20.504 10.04C20.1627 10.68 19.7787 11.416 19.352 12.248C18.9253 13.08 18.5627 13.7413 18.264 14.232C18.1147 14.4667 17.976 14.6693 17.848 14.84C17.7413 15.0107 17.6667 15.1493 17.624 15.256C17.5387 15.4907 17.4 15.7787 17.208 16.12C17.016 16.4613 16.792 16.792 16.536 17.112C16.408 17.304 16.2373 17.528 16.024 17.784C15.832 18.04 15.6613 18.2747 15.512 18.488C15.3627 18.68 15.288 18.776 15.288 18.776C15.2453 18.904 15.1067 19.1067 14.872 19.384C14.6373 19.6613 14.3493 19.9707 14.008 20.312C13.688 20.632 13.3573 20.9307 13.016 21.208C12.2693 21.8053 11.6507 22.1787 11.16 22.328C10.6907 22.4773 10.1467 22.296 9.528 21.784C9.25067 21.4427 9.02667 21.1013 8.856 20.76C8.68533 20.3973 8.6 19.9067 8.6 19.288C8.6 18.6693 8.70667 17.8053 8.92 16.696C9.06933 15.992 9.22933 15.2453 9.4 14.456C9.592 13.6667 9.784 12.9093 9.976 12.184C10.168 11.4373 10.3387 10.7973 10.488 10.264C10.6587 9.70933 10.776 9.32533 10.84 9.112C10.904 8.57867 10.9147 8.30133 10.872 8.28C10.8293 8.23733 10.7227 8.35467 10.552 8.632C10.4027 8.86667 10.1253 9.35733 9.72 10.104C9.31467 10.8507 8.856 11.7253 8.344 12.728C7.85333 13.7307 7.37333 14.7333 6.904 15.736C6.02933 17.3573 5.29333 18.712 4.696 19.8C4.09867 20.888 3.608 21.7627 3.224 22.424C2.84 23.064 2.54133 23.544 2.328 23.864C2.136 24.2053 1.98667 24.44 1.88 24.568C1.79467 24.7173 1.73067 24.8133 1.688 24.856C1.368 24.8347 1.09067 24.6853 0.856 24.408C0.621333 24.1307 0.429333 23.8 0.28 23.416C0.237333 23.2027 0.205333 22.9787 0.184 22.744C0.162667 22.5093 0.184 22.2533 0.248 21.976C0.333333 21.6773 0.461333 21.3573 0.632 21.016C0.909333 20.4613 1.176 19.992 1.432 19.608C1.688 19.224 1.848 18.9893 1.912 18.904C2.01867 18.7547 2.104 18.5947 2.168 18.424C2.232 18.2533 2.27467 18.0933 2.296 17.944C2.40267 17.816 2.56267 17.5493 2.776 17.144C3.01067 16.7387 3.24533 16.3013 3.48 15.832C3.65067 15.5547 3.88533 15.1707 4.184 14.68C4.48267 14.168 4.80267 13.624 5.144 13.048C5.48533 12.4507 5.784 11.9067 6.04 11.416C6.97867 9.73067 7.72533 8.38667 8.28 7.384C8.83467 6.36 9.22933 5.70933 9.464 5.432C9.61333 5.32533 9.74133 5.12267 9.848 4.824C9.976 4.504 10.0827 4.26933 10.168 4.12C10.4667 3.52267 10.7653 3.032 11.064 2.648C11.384 2.24267 11.6613 2.04 11.896 2.04C12.0667 2.04 12.28 2.104 12.536 2.232C12.8133 2.36 13.08 2.54133 13.336 2.776C13.5707 3.05333 13.784 3.42667 13.976 3.896C14.1893 4.344 14.232 4.94133 14.104 5.688C14.0827 6.02933 14.0293 6.44533 13.944 6.936C13.8587 7.40533 13.7733 7.87467 13.688 8.344C13.6027 8.81333 13.5173 9.208 13.432 9.528C13.2613 10.488 13.0693 11.4053 12.856 12.28C12.664 13.1333 12.4827 13.9227 12.312 14.648C12.1413 15.3733 12.0027 16.0133 11.896 16.568C11.7893 17.1013 11.7147 17.5387 11.672 17.88C11.6507 18.2213 11.6933 18.4453 11.8 18.552C11.864 18.5733 11.9493 18.552 12.056 18.488C12.184 18.4027 12.28 18.3173 12.344 18.232C12.472 18.0613 12.5893 17.8907 12.696 17.72C12.8027 17.5493 12.9413 17.336 13.112 17.08C13.4533 16.6107 13.8053 16.0987 14.168 15.544C14.552 14.968 15 14.264 15.512 13.432C16.0453 12.5787 16.6747 11.5333 17.4 10.296C18.1253 9.03733 19.0107 7.48 20.056 5.624C20.5467 4.87733 21.016 4.13067 21.464 3.384C21.912 2.63733 22.3173 2.06133 22.68 1.656C23 1.31467 23.3947 1.19733 23.864 1.304C24.3547 1.41067 24.8027 1.67733 25.208 2.104C25.6133 2.53067 25.8373 3.05333 25.88 3.672C25.9013 3.97067 25.8373 4.504 25.688 5.272C25.56 6.01867 25.3787 6.86133 25.144 7.8C24.9093 8.73867 24.6427 9.656 24.344 10.552C24.28 10.9147 24.1733 11.3947 24.024 11.992C23.8747 12.5893 23.7147 13.1973 23.544 13.816C23.3733 14.4347 23.2133 14.9893 23.064 15.48C22.9147 16.2053 22.7867 16.7813 22.68 17.208C22.5947 17.6347 22.552 18.1253 22.552 18.68C22.36 19.0213 22.232 19.512 22.168 20.152C22.104 20.792 22.072 21.4533 22.072 22.136C21.9867 22.968 21.8053 23.5547 21.528 23.896C21.272 24.2373 21.1013 24.3973 21.016 24.376C20.8453 24.312 20.7067 24.3653 20.6 24.536ZM28.6865 29.336C27.7265 28.7813 27.0225 27.9493 26.5745 26.84C26.1265 25.7307 25.9558 24.5787 26.0625 23.384C26.0838 23.064 26.1798 22.7653 26.3505 22.488C26.4998 22.2107 26.6918 22.04 26.9265 21.976C27.1825 21.912 27.3852 21.944 27.5345 22.072C27.6838 22.1787 27.7798 22.3067 27.8225 22.456C27.8865 22.6053 27.9078 22.712 27.8865 22.776C27.8865 22.9253 27.9505 23.128 28.0785 23.384C28.2278 23.768 28.3132 24.1093 28.3345 24.408C28.3558 24.728 28.3985 24.9947 28.4625 25.208C28.5478 25.4427 28.7078 25.656 28.9425 25.848C29.0065 25.9333 29.0812 26.0507 29.1665 26.2C29.2518 26.3707 29.3692 26.456 29.5185 26.456C29.8172 26.6907 30.0305 26.808 30.1585 26.808C30.2865 26.808 30.4998 26.5627 30.7985 26.072C30.9692 25.7733 31.1932 25.304 31.4705 24.664C31.7692 24.024 32.0785 23.3413 32.3985 22.616C32.7398 21.8907 33.0278 21.2293 33.2625 20.632C33.5185 20.0347 33.6785 19.64 33.7425 19.448C33.7425 19.448 33.7745 19.416 33.8385 19.352C33.9025 19.2667 33.9558 19.1493 33.9985 19C33.9985 18.872 34.0518 18.6267 34.1585 18.264C34.2865 17.9013 34.4358 17.4747 34.6065 16.984C34.7985 16.4933 34.9798 16.0027 35.1505 15.512C35.3425 15.0213 35.4812 14.584 35.5665 14.2C35.8652 13.2827 36.1958 12.2907 36.5585 11.224C36.9212 10.136 37.2732 9.09067 37.6145 8.088C37.9558 7.064 38.2332 6.18933 38.4465 5.464C38.6812 4.73867 38.8092 4.28 38.8305 4.088C38.8305 3.81067 38.7878 3.66133 38.7025 3.64C38.6385 3.61867 38.3612 3.68267 37.8705 3.832C37.6572 3.896 37.3478 3.91733 36.9425 3.896C36.5372 3.87467 36.1425 3.90667 35.7585 3.992C35.4598 4.01333 35.1825 3.90667 34.9265 3.672C34.6705 3.416 34.4892 3.10667 34.3825 2.744C34.2758 2.36 34.2652 2.008 34.3505 1.688C34.3505 1.60267 34.5212 1.51733 34.8625 1.432C35.2038 1.34667 35.5558 1.32533 35.9185 1.368C36.0038 1.38933 36.0998 1.37867 36.2065 1.336C36.3345 1.29333 36.4412 1.26133 36.5265 1.24C36.6972 1.176 36.8998 1.12267 37.1345 1.08C37.3905 1.016 37.6358 1.00533 37.8705 1.048C38.0625 1.06933 38.2332 1.048 38.3825 0.983999C38.5318 0.919999 38.6065 0.887999 38.6065 0.887999C38.6918 0.909332 38.8945 0.973331 39.2145 1.08C39.5558 1.18667 39.8225 1.19733 40.0145 1.112C40.1638 1.13333 40.3452 1.09067 40.5585 0.983999C40.7718 0.877333 40.8785 0.823999 40.8785 0.823999C40.9425 0.759999 41.0385 0.802666 41.1665 0.952C41.2945 1.08 41.4225 1.24 41.5505 1.432C41.6785 1.624 41.7745 1.784 41.8385 1.912C41.9452 2.25333 41.9558 2.63733 41.8705 3.064C41.8065 3.49067 41.7105 4.04533 41.5825 4.728C41.4545 5.06933 41.3265 5.45333 41.1985 5.88C41.0705 6.30667 40.9532 6.65867 40.8465 6.936C40.8252 7.27733 40.7612 7.66133 40.6545 8.088C40.5478 8.51467 40.4305 8.84533 40.3025 9.08C39.8972 10.3173 39.6092 11.2133 39.4385 11.768C39.2892 12.3227 39.1932 12.6427 39.1505 12.728C39.1505 12.728 39.1398 12.7707 39.1185 12.856C39.1185 12.9413 39.0758 13.08 38.9905 13.272C38.8838 13.2933 38.7985 13.4107 38.7345 13.624C38.6918 13.816 38.6705 13.9547 38.6705 14.04C38.5852 14.1893 38.5105 14.3173 38.4465 14.424C38.4038 14.5093 38.3398 14.5947 38.2545 14.68C38.2545 14.68 38.2438 14.7547 38.2225 14.904C38.2225 15.0533 38.1585 15.2133 38.0305 15.384C38.0305 15.5333 38.0198 15.704 37.9985 15.896C37.9772 16.0667 37.9025 16.3333 37.7745 16.696C37.6465 17.0373 37.4332 17.5493 37.1345 18.232C37.1132 18.3813 37.0278 18.648 36.8785 19.032C36.7292 19.416 36.5692 19.8213 36.3985 20.248C36.2492 20.6747 36.1105 21.048 35.9825 21.368C35.8545 21.688 35.7905 21.8693 35.7905 21.912C35.7478 22.104 35.5132 22.616 35.0865 23.448C34.6598 24.28 34.1905 25.304 33.6785 26.52C33.2305 27.5227 32.7185 28.28 32.1425 28.792C31.5665 29.3253 30.9798 29.624 30.3825 29.688C29.7852 29.752 29.2198 29.6347 28.6865 29.336Z" fill="#505F3A"/>
</svg>
